<?xml version="1.0" encoding="UTF-8"?>
<svg id="Layer_1" xmlns="http://www.w3.org/2000/svg" version="1.1" viewBox="0 0 467.8 593.6">
  <!-- Generator: Adobe Illustrator 29.2.1, SVG Export Plug-In . SVG Version: 2.1.0 Build 116)  -->
  <defs>
    <style>
      .st0 {
        fill-opacity: .9;
      }

      .st0, .st1 {
        fill: #fff;
      }

      .st1 {
        fill-opacity: .9;
      }
    </style>
  </defs>
  <path class="st0" d="M89.5,67.2c5.8-1,13.4-1.8,19.4-2.7,19.2-3,38.9-7.3,59.1-13.1,6.6-1.9,12.8-4.3,19-6.4,16.1-5.5,31.8-12.1,47-19.7s2.5-.6,4,.1c20.8,10,42.5,18.5,65,25.5,6.4,2,14.7,4.2,25.1,6.6,10.7,2.5,19.2,4.2,25.4,5,6.5.9,15.1,2.1,25.8,3.6.3,0,.6.1.8.2.8.3,1.6.5,2.2.5.6,0,1.2.5,1.2,1.1,0,0,0,0,0,0-.2,19.6-.4,31.2-.5,34.8-.6,24.6-1.4,46.7-2.6,66.1-.5,7.4-1,13.8-1.6,19.2-.9,7.3-1.7,13.6-2.5,19.1,0,.6-1,4.9-2.8,13-1,4.4-2.2,8.7-3.7,12.8-4.5,12.4-8.4,21.6-11.7,27.9-11.9,22.1-27.9,41.7-48,58.7-20.6,17.4-45,31.9-73.2,43.3-.4.2-.8.2-1.3.1-1.3-.2-2.9-.7-4.6-1.5-7.1-3.1-13.3-5.9-18.7-8.6-5.8-2.9-13.9-7.3-24-13.5-20.2-12.2-38.3-27.8-53.2-45.5-13.8-16.2-24-34.3-30.8-54.4-2.9-8.7-5.4-17.6-7.4-26.7-1.8-8.4-3.3-19.2-4.4-32.4-1.8-21.2-2.7-38.2-2.9-50.8-.2-17.6-1-40.4-1-61.5,0-.5.3-.9.8-1ZM366.4,80.8c-.3,0-.7,0-1,0-19.6-2.7-39.2-6.7-58.8-12.1-24.6-6.7-47.6-15.9-70.3-26.5-.3-.2-.7-.2-1.1,0-15,7.4-30.4,13.9-46.2,19.3-13.6,4.7-25.4,8.2-35.4,10.6-9.2,2.2-18.3,4.2-27.4,5.8-3.8.7-10.7,1.7-20.7,3-.3,0-.5.3-.5.6.5,24.6,1.2,47.6,2,68.8.8,21.4,2.9,41.1,6.3,58.9,3.4,18.1,9.2,34.4,17.3,48.9,12.1,21.7,28.4,40.1,48.9,55.3,17.2,12.7,35.8,22.9,55.9,30.5.7.3,1.4.2,2.1,0,41.8-17.1,79-45.2,102.9-84.5,2.2-3.6,3.7-7.1,5.5-10.8,7.7-15.7,12.9-32.5,15.6-50.4,1-6.5,1.8-13,2.2-18.6.3-3.5.7-9.6,1.3-18.2.5-7.5.8-13.6.8-18.2,0-12.6.7-23,.8-36.1.1-13.3.3-21.8.5-25.8,0-.3-.2-.6-.5-.6,0,0,0,0,0,0Z"/>
  <path class="st1" d="M222.7,204.6s-.1.3-.2.8c0,.2-.2.3-.3.4l-30.5,20.1c-.2.1-.3.3-.4.5-1.7,3.5-2.5,7.5-3.5,10.4-5,14.5-10.4,29.6-16.4,45.1-.7,1.8-2.7,2.7-4.5,2,0,0-.1,0-.2,0h-.2c-1.9-.9-2.9-3.2-2.2-5.2l20.3-56.1c.4-1.1,1.2-2.1,2.2-2.8l32.4-20.9c1-.6,1.3-1.9.6-2.9-.3-.5-.8-.8-1.4-.9l-31.9-6.4c-.5,0-1,0-1.4.3l-30.5,20.5c-1.7,1.1-4,.8-5.2-.8v-.2c-1.3-1.4-1.1-3.5.3-4.7,0,0,.2-.1.3-.2,4.6-3.1,7-4.7,7.1-4.8,7.5-5.5,15-10,23.1-16,2.4-1.8,5.1-2.3,8.2-1.5,7.8,2,17.6,4.1,29.4,6.4.4,0,.9-.2.9-.7,0,0,0-.2,0-.2-.5-4.1-.2-8,1.1-11.7,0-.3,0-.6-.3-.6,0,0,0,0,0,0-1.8-.2-3.8-.8-6.1-1.6-4.1-1.4-10.4-3.9-19-7.4-3.9-1.6-6.8-4.1-8.6-7.6-7.3-13.8-12.7-23.8-16.2-30.1-.4-.8-1.7-3.3-3.8-7.5-1.2-2.4-1.7-4.3.5-6,3.1-2.3,4.9,1.2,6.2,3.3,5.7,9.6,12.3,21.4,19.8,35.5,3,5.7,10.4,8.3,16.9,10.5,3.6,1.3,7.4,2.5,11.5,3.7.5.1,1-.1,1.1-.6.7-2.2,2-4.2,3.9-6.1.3-.3.3-.8,0-1.1,0,0,0,0,0,0l-3.9-2.8s0,0-.1,0c-8.4-9.6-9.1-23.4-3.9-34.7.2-.4,0-.8-.3-1-.7-.4-1.4-.9-2.1-1.6-11.9-10.7-18-24.2-18.4-40.5,0-1.8,1.4-3.4,3.2-3.5h.2c1.8-.1,3.3,1.2,3.4,3h0c0,1.1.3,3.3.8,6.6.8,6.2,4,13.9,6.8,18.1,2.4,3.7,5.6,7.4,9.4,11.3.1.1.3,0,.4,0,0,0,0,0,0,0,3.6-6.3,8.5-11.2,14.6-14.6.4-.2,1-.3,1.4,0,2,1,3.9,2.5,5.8,4.3,3.2,3.2,5.9,6.7,8.1,10.5.1.2.4.3.7.2,0,0,0,0,.1,0,5.7-5.7,9.6-10.8,11.8-15.4,2.8-5.9,4.6-12.8,5.3-20.7.2-1.9,1.9-3.3,3.8-3.1,0,0,.2,0,.3,0h.1c2,.4,3.4,2.3,3.2,4.3-1,7.6-2,13.1-3.2,16.5-3.3,10-9.4,18.3-18.1,25.1-.4.3-.5.9-.3,1.3l1.7,3.1c0,0,0,.2.1.3,1.2,5.8,1.8,9.3,1.8,10.5,0,10.2-4.1,17.9-12.4,23.3-.2,0-.2.3,0,.5,0,0,0,0,.1.1,3.4,1.6,3.8,5.3,5.4,7.5.2.2.5.3.8.1,0,0,0,0,0,0,1.7-1.4,4.4-1.6,6.5-2.4,8.6-3.3,13.6-4.8,18.6-7.8,1.2-.7,2.1-1.7,2.7-3,6.5-13.3,13.5-26.3,21.2-39.2.9-1.6,3-2.1,4.5-1.1,0,0,.1,0,.2.1h.1c1.6,1.2,2.2,3.4,1.2,5.2-10.1,19.1-15.4,28.9-15.7,29.5-2.1,3.7-3.7,6.8-4.7,9.3-1.6,3.9-5.3,5.8-9.5,7.7-8,3.5-16,6.3-24.1,8.3-.4,0-.6.4-.5.8.8,4.3,1,8.4.6,12.2,0,.3.2.6.5.6,0,0,.1,0,.2,0l33.7-7.3c.3,0,.7,0,1,.1,1.8.9,2.8,1.4,3.1,1.6,10.8,7.3,21.2,14.4,31,21.2,1.5,1.1,2,3.1,1.1,4.8h0c-.9,1.6-2.8,2.2-4.4,1.4-2.6-1.3-4.5-2.4-5.7-3.2-11.2-7.6-19-12.8-23.5-15.7-1.1-.7-2-1.6-2.8-2.4,0,0,0,0-.2,0l-35.3,7.1c-.1,0-.2.1-.2.3,0,2.9,3.4,4.5,6.5,6.5,9,5.8,17.7,11.3,26,16.5,3.2,2,3.8,4.3,5,7.7,5.3,15.7,9.2,26.5,11.6,32.4,3.4,8.3,5.9,14.7,7.4,19.1.9,2.5.4,4.4-1.2,5.8-.2.2-.6.3-.9.4-1.9.3-3.2-.4-4-2-1.2-2.4-1.9-4-2.3-4.9-7.3-18.1-13.5-34.8-18.5-50-.3-.9-1.1-1.7-2.4-2.6-7.3-4.5-17.2-11-29.8-19.4-.4-.3-.9-.2-1.2.2,0,0-.1.2-.1.3-.3,1.5-1.1,2.8-2.5,3.9-.2.2-.3.5,0,.8,0,0,0,0,0,0,1,.9,2.5,1.5,3.6,2.4,8.4,7.1,13.7,15.5,15.7,25.4,3.6,17.1-.6,32-12.4,44.8-3.6,3.9-7.9,6.8-13,10.2-1.3.9-2.8,1.2-4.4,1-.3,0-.6-.2-.9-.3-15-8.4-25.1-23-26.1-40.3-.4-7.1,0-13.1,1.5-18,2.3-8.3,6.4-15.2,12.4-20.8,1.5-1.5,3.2-2.6,4.9-3.5.4-.2.6-.7.4-1.1,0,0,0-.1-.1-.2-1.3-1.4-2.2-3.1-2.7-4.9-.1-.4-.6-.7-1-.5,0,0-.2,0-.2.1Z"/>
  <path class="st1" d="M94,507H24.1c-.2,0-.3-.1-.3-.3h0v-109.2c0-.2.1-.3.3-.3h69.9c.2,0,.3.1.3.3h0v18.4c0,.2-.1.3-.3.3h-48c-.2,0-.3.1-.3.3v25.4c0,.2.1.3.3.3h41.5c.2,0,.3.1.3.3v17.8c0,.2-.1.3-.3.3h-41.5c-.2,0-.3.1-.3.3h0v25.8c0,.2.1.3.3.3h48.1c.2,0,.3.1.3.3v19.1c0,.2-.1.3-.3.3h0Z"/>
  <path class="st1" d="M326.6,416.5v90.1c0,.2-.1.3-.3.3h-22.3c-.2,0-.3-.1-.3-.3h0v-90.1c0-.2-.1-.3-.3-.3h-30.3c-.2,0-.3-.1-.3-.3v-18.4c0-.2.1-.3.3-.3h82.3c.2,0,.3.1.3.3h0v18.4c0,.2-.1.3-.3.3h-28.4c-.2,0-.3.1-.3.3Z"/>
  <path class="st1" d="M194.3,507h-67.3c-.2,0-.3-.2-.3-.3v-109.1c0-.2.2-.3.3-.3h21.8c.2,0,.3.2.3.3h0v89.4c0,.2.2.3.3.3h44.8c.2,0,.3.2.3.3h0v19.1c0,.2-.2.3-.3.3Z"/>
  <rect class="st1" x="224.8" y="397.1" width="23.5" height="109.8" rx=".3" ry=".3"/>
  <path class="st1" d="M442.3,460.7h-39.4c-.2,0-.5.2-.5.5h0v24.9c0,.3.2.6.5.8.4.2,1.5.3,3.1.3,9.4,0,21.9,0,37.5,0,1.6,0,3.4-.1,5.3-.3.4,0,.7.2.8.6,0,0,0,0,0,0v19c0,.2-.2.4-.4.4h-67.1c-.3,0-.6-.3-.6-.6h0v-108.7c0-.3.2-.5.5-.5h66c.3,0,.6.3.6.6h0v18c0,.3-.2.5-.5.5h-44.8c-.5,0-.9.4-.9.9v24.2c0,.6.5,1,1,1h38.6c.3,0,.6.3.6.6v17.4c0,.3-.2.5-.5.5h0Z"/>
  <path class="st1" d="M79.5,557.2c0,0,1,.4,2.8,1.2,2.4,1.1,4.9,1.6,7.3.7,1.1-.4,1.9-1.6,1.7-2.8-.2-2-3.6-3-5.3-3.2-.3,0-.6-.1-.9-.3-3.3-1.5-7.4-2.7-7.5-7.4,0-4.5,2.2-7.2,6.7-8.3,3.1-.7,8.2-.5,10.7,1.9.7.7.9,1.7.4,2.6l-.8,1.7c-.3.7-1.1.9-1.8.6-.1,0-.2-.1-.3-.2-1.3-1.3-3.4-2-6.1-2.1-1.4,0-2.6.7-2.9,1.8-.6,1.8.2,3.1,2.4,3.9,4.2,1.5,6.7,2.4,7.3,2.6.3,0,.6.2.8.4,1.7,1.2,2.7,2.9,2.8,4.9.3,4.7-1.8,7.6-6.2,8.8-4.3,1.2-8.4.4-12.2-2.2-.3-.2-.5-.5-.6-.9-.4-1.4-.2-2.5.7-3.3.3-.2.6-.4,1-.4Z"/>
  <path class="st1" d="M290.8,543.9l-.4.6c-.2.3-.7.4-1,.2l-2.7-2c-.3-.2-.6-.4-1-.4-4-.9-7.2,0-9.4,2.6-.2.3-.4.5-.5.9-2.2,5.6-.8,10,4.2,13,1.1.7,3.2.7,6.4,0,1.3-.3,2.3-1.4,2.3-2.8v-1.2c0-.8-.6-1.4-1.4-1.4-.1,0-.2,0-.3,0-.9.2-2.2.2-3.7-.1-.3,0-.6-.4-.6-.7v-3.2c0-.2.2-.4.4-.4h10c.3,0,.6.3.6.6v9.2c0,.5-.2.9-.5,1.2-3.3,3.6-6.5,4.2-11.3,4-1.9,0-3.6-.5-5.1-1.2-3.3-1.7-5.6-4.3-6.8-7.7-1.2-3.4-1.1-6.8,0-10.3,1.9-5.4,6.3-8.1,13.1-8.1,2.2,0,4,.3,5.3,1,.3.1.6.3.8.6l3.5,3.3c.2.2.3.6.1.9-.5.9-1,1.2-1.6,1-.2,0-.5,0-.6.2Z"/>
  <path class="st1" d="M29.5,563.8c0,.2-.1.3-.3.3h-5c-.2,0-.3-.1-.3-.3v-26.1c0-.3.2-.5.5-.5.6,0,4.1,0,10.7,0,3.6,0,7.2,1.8,8.7,5.2,1.6,3.5,1.1,6.9-1.5,10.2-.3.4-1.5,1-3.4,1.9-2.1.9-7,.9-8.5.6-.3,0-.6.1-.7.4,0,0,0,0,0,.1v8.2ZM29.5,542.4v7.5c0,.2.1.3.3.3h4.9c2.3,0,4.1-1.6,4.1-3.6v-.9c0-2-1.9-3.6-4.1-3.6h-4.9c-.2,0-.3.1-.3.3h0Z"/>
  <path class="st1" d="M71.3,559.6v4.1c0,.2-.2.4-.4.4h-18.7c-.2,0-.4-.2-.4-.4v-26.1c0-.2.2-.4.4-.4h18.5c.2,0,.4.2.4.4v4c0,.2-.2.4-.4.4h-12.8c-.2,0-.4.2-.4.4v5.1c0,.2.2.4.4.4h10.6c.2,0,.4.2.4.4v3.9c0,.2-.2.4-.4.4h-10.5c-.2,0-.4.2-.4.4h0v5.5c0,.2.2.4.4.4h13.1c.2,0,.4.2.4.4Z"/>
  <path class="st1" d="M112.1,537.2c3.5,0,7,0,10.2,0,.2,0,.5.2.5.4,0,0,0,0,0,0v4.1c0,.2-.2.4-.4.4h-7c-.3,0-.5.2-.5.5v20.9c0,.3-.3.6-.6.6-.2,0-.9,0-2.1,0-1.2,0-1.8,0-2.1,0s-.6-.3-.6-.6h0l-.2-20.9c0-.3-.2-.5-.5-.5h-7c-.2,0-.4-.1-.4-.3h0s0-4.1,0-4.1c0-.2.2-.5.4-.5,0,0,0,0,0,0,3.3,0,6.7,0,10.2,0Z"/>
  <path class="st1" d="M140.7,563.8v-26.1c0-.3.2-.5.5-.5h5.3c.5,0,.9.3,1.1.7l6.7,13.3c.2.3.5.4.8.3.2-.1.3-.3.3-.5,0-.5.2-1.2.6-1.9,1.6-3.1,3.4-6.7,5.5-10.8.3-.6.9-1,1.6-1h4.5c.3,0,.6.3.6.6h0v25.8c0,.3-.3.6-.6.6h-4.1c-.3,0-.5-.2-.5-.5v-16.8c0-.1-.1-.3-.3-.3,0,0-.2,0-.2.1l-5.8,11.9c-.1.3-.4.5-.7.6-1.8.5-3-.1-3.8-1.9-.7-1.6-2.1-4.2-4.1-7.7-.5-.8-.6-2.3-1-2.6-.2-.1-.4,0-.6.1,0,0,0,.1,0,.2v16.3c0,.2-.2.4-.4.4h-5c-.2,0-.3-.1-.3-.3Z"/>
  <path class="st1" d="M188.6,537.1c.8,0,1.4,0,1.9,0,.6,0,1.2.4,1.4,1l9.8,25.2c.1.3,0,.6-.3.7,0,0-.1,0-.2,0h-4.1c-.6,0-1.1-.3-1.3-.9l-1.7-4.4c-.2-.4-.6-.7-1.1-.7-.5,0-1.9,0-4.4,0h-4.4c-.5,0-.9.3-1.1.7l-1.7,4.4c-.2.5-.7.9-1.3.9h-4.1c-.3,0-.5-.3-.5-.5,0,0,0-.1,0-.2l9.8-25.2c.2-.6.8-1,1.4-1,.4,0,1,0,1.9,0ZM188,544.5l-3.1,8.5c0,.1,0,.3.2.3,0,0,0,0,0,0h6.3c.3,0,.5-.2.5-.5,0,0,0-.1,0-.2l-3.1-8.1c0-.2-.3-.3-.6-.2-.1,0-.2.1-.2.2Z"/>
  <path class="st1" d="M231.2,564.2h-4.9c-.1,0-.2,0-.3-.1l-11.8-17.5c-.1-.1-.3-.2-.5,0,0,0-.1.2-.1.3v17.2c0,.2-.1.3-.3.3h-4.5c-.2,0-.3-.1-.3-.3h0v-26.3c0-.2.1-.3.3-.3h5c.1,0,.2,0,.3.2l11.7,17.4c.1.1.3.2.5,0,0,0,.1-.2.1-.3v-17c0-.2.1-.3.3-.3h4.4c.2,0,.3.1.3.3h0v26.3c0,.2-.1.3-.3.3h0Z"/>
  <path class="st1" d="M251.4,558.1c-2.5,0-3.9,0-4.4,0-.5,0-.9.3-1,.7l-1.8,4.4c-.2.5-.7.9-1.3.9h-4.1c-.3,0-.5-.3-.5-.6,0,0,0-.1,0-.2l9.9-25c.2-.6.8-1,1.4-1,.4,0,1,0,1.8,0,.8,0,1.4,0,1.9,0,.6,0,1.2.5,1.4,1l9.6,25.2c.1.3,0,.6-.3.7,0,0-.1,0-.2,0h-4.1c-.6,0-1.1-.4-1.3-.9l-1.7-4.5c-.2-.4-.6-.7-1-.7-.5,0-1.9,0-4.4,0ZM250.8,544.7l-2.8,8.4c0,.1,0,.3.2.3,0,0,0,0,0,0h6.1c.3-.1.5-.4.5-.7,0,0,0-.1,0-.2l-3.2-7.9c0-.2-.3-.3-.5-.2-.1,0-.2.1-.2.3Z"/>
  <path class="st1" d="M308.3,553.3v5.3c0,.4.4.6.7.6h12.8c.3,0,.6.2.5.5v3.9c-.1.3-.3.5-.6.5h-18.5c-.3,0-.6-.2-.6-.5,0,0,0,0,0,0v-25.8c0-.3.2-.6.5-.6h18.3c.3,0,.5.2.5.4,0,0,0,0,0,0v3.9c-.1.3-.4.5-.6.5h-12.6c-.3,0-.6.3-.6.6,0,0,0,0,0,0v4.8c0,.3.4.6.7.6h10.2c.3,0,.6.2.6.6v3.6c0,.3-.3.6-.6.6h-10.3c-.3-.1-.6.1-.6.4s0,0,0,0Z"/>
  <path class="st1" d="M343.8,552.1c.3,0,.5-.1.6-.4,1.5-3.5,3.7-8.1,6.7-13.8.2-.5.7-.8,1.3-.8h4.2c.5,0,1,.4,1,1h0v25.6c0,.2-.2.4-.4.4h-4.3c-.2,0-.4-.2-.4-.4v-16.5c0-.2-.1-.3-.3-.3-.1,0-.2,0-.3.2-1.9,4.1-3.8,8-5.9,11.7-.4.7-1.1,1.1-2.1,1.1-1,0-1.7-.4-2.1-1.1-2.1-3.7-4.1-7.6-6-11.7,0-.2-.3-.2-.4-.2-.1,0-.2.2-.2.3v16.5c.1.2,0,.4-.2.4h-4.3c-.2,0-.4-.1-.4-.4l-.2-25.6c0-.5.4-1,1-1h4.2c.5,0,1,.3,1.3.7,3,5.6,5.3,10.2,6.8,13.7.1.3.3.4.6.4Z"/>
  <path class="st1" d="M372.4,553.3v5.2c0,.3.4.6.7.6h12.7c.3,0,.6.3.6.6,0,0,0,0,0,0v3.9c-.1.3-.3.5-.6.5h-18.5c-.3,0-.5-.3-.5-.6v-25.7c0-.3.2-.6.6-.6h18.3c.3,0,.5.2.5.5,0,0,0,0,0,0v3.9c-.1.3-.4.5-.6.5h-12.6c-.3,0-.6.2-.6.5s0,0,0,0v4.8c0,.3.4.6.7.6h10.2c.3,0,.6.3.6.6v3.6c0,.3-.3.6-.6.5h-10.3c-.3-.1-.6.1-.6.4,0,0,0,0,0,0Z"/>
  <path class="st1" d="M411.7,553.6v-15.8c0-.3.3-.6.6-.6h4.3c.2,0,.4.2.4.5h0v25.8c0,.4-.3.7-.7.7h-3.3c-.2,0-.5-.1-.6-.3l-12.6-16.8c0,0-.2,0-.2,0,0,0,0,0,0,.1v16.7c0,.2-.1.3-.3.3h-4.8c-.1,0-.2-.1-.2-.2h0v-25.9c0-.5.4-.9.9-.9h3.3c.5,0,1,.2,1.3.6l9.7,13.2,2,2.7c0,0,.2.1.3,0,0,0,0-.1,0-.2Z"/>
  <path class="st1" d="M433.9,564.1h-2.1c-.3,0-.6-.3-.6-.6v-20.9c-.1-.3-.3-.5-.6-.5,0,0,0,0,0,0h-7c-.2,0-.4-.1-.4-.4v-4.1c0-.2.2-.5.4-.5,3.3,0,6.7,0,10.2,0,3.6,0,7,0,10.2,0,.2,0,.5.2.5.5h0v4.1c0,.2-.2.4-.4.4h-7c-.3,0-.5.2-.5.5v20.9c0,.3-.3.6-.7.6h-2.1Z"/>
</svg>